<svg xmlns="http://www.w3.org/2000/svg" xmlns:xlink="http://www.w3.org/1999/xlink" width="1080" height="1080" viewBox="0 0 1080 1080">
  <defs>
    <clipPath id="clip-Instagram_Post_1">
      <rect width="1080" height="1080"/>
    </clipPath>
  </defs>
  <g id="Instagram_Post_1" data-name="Instagram Post – 1" clip-path="url(#clip-Instagram_Post_1)">
    <g id="noun_abstract_1574636" transform="translate(493.909 419)" style="isolation: isolate">
      <path id="Path_1" data-name="Path 1" d="M47.8,108.074a15.324,15.324,0,0,1,0-30.648h7.152v-14.3H25.324a15.324,15.324,0,1,1,0-30.648H54.951V25.324A15.324,15.324,0,1,1,70.275,40.648H63.123v14.3H92.75a15.324,15.324,0,0,1,0,30.648H63.123V92.75A15.343,15.343,0,0,1,47.8,108.074Zm0-22.475a7.151,7.151,0,1,0,7.152,7.151V85.6Zm15.324-8.173H92.75a7.151,7.151,0,0,0,0-14.3H63.123Zm-37.8-36.778a7.151,7.151,0,0,0,0,14.3H54.951v-14.3Zm37.8-8.173h7.152a7.151,7.151,0,1,0-7.152-7.151Z" transform="translate(-10 -10)" fill="#fff"/>
    </g>
    <text id="SAURAV_GHIMIRE" data-name="SAURAV GHIMIRE" transform="translate(278 585)" fill="#fff" font-size="58" font-family="Montserrat-Regular, Montserrat"><tspan x="0" y="0">SAURAV GHIMIRE</tspan></text>
  </g>
</svg>
